<svg width="25" height="25" viewBox="0 0 25 25" fill="none" xmlns="http://www.w3.org/2000/svg">
<path d="M11.4486 17.2797C11.3174 17.28 11.1873 17.2543 11.066 17.2042C10.9447 17.1541 10.8345 17.0805 10.7416 16.9877L6.49963 12.7447C6.40406 12.6525 6.3278 12.5422 6.27531 12.4203C6.22282 12.2983 6.19514 12.1671 6.19389 12.0343C6.19264 11.9015 6.21785 11.7698 6.26805 11.6469C6.31824 11.524 6.39242 11.4123 6.48624 11.3183C6.58007 11.2244 6.69166 11.15 6.81452 11.0997C6.93738 11.0493 7.06904 11.0239 7.20182 11.025C7.3346 11.026 7.46584 11.0535 7.58788 11.1058C7.70992 11.1582 7.82032 11.2343 7.91263 11.3297L11.4476 14.8647L17.8126 8.5017C18.0001 8.31406 18.2545 8.20859 18.5198 8.2085C18.7851 8.2084 19.0395 8.31369 19.2271 8.5012C19.4148 8.68871 19.5202 8.94308 19.5203 9.20835C19.5204 9.47362 19.4151 9.72806 19.2276 9.9157L12.1556 16.9877C12.0628 17.0805 11.9526 17.1541 11.8313 17.2042C11.7099 17.2543 11.5799 17.28 11.4486 17.2797Z" fill="#2FAB73"/>
</svg>
